# xmcd
#
# Track frame offsets:
#	150
#	6227
#	13285
#	26445
#	45117
#	51212
#	58447
#	73222
#	79062
#	85702
#	99950
#	106102
#	114767
#	120072
#	139950
#	154860
#	160972
#	172205
#	176687
#	202390
#	218742
#	230290
#	236392
#	241115
#	254135
#	259662
#	265405
#	271945
#	279850
#	288550
#	305690
#
# Disc length: 4275 seconds
#
# Revision: 1
# Processed by: cddbd v1.5.1PL0 Copyright (c) Steve Scherf et al.
# Submitted via: CDex 1.50Beta5
#
DISCID=b510b11f
DTITLE=藤岡弘 - 仮面ライダー BATTLE MUSIC COLLECTION
DYEAR=1996
DGENRE=
TTITLE0=藤岡弘/レッツゴー!!ライダーキック
TTITLE1=TVサントラ/怪人
TTITLE2=TVサントラ/本郷猛
TTITLE3=TVサントラ/改造人間
TTITLE4=藤浩一/レッツゴー!!ライダーキック
TTITLE5=TVサントラ/ショッカー
TTITLE6=TVサントラ/一文字隼人,滝和也
TTITLE7=TVサントラ/変身!
TTITLE8=TVサントラ/ゲルショッカー
TTITLE9=TVサントラ/ライダー変身!
TTITLE10=宮内洋/戦え!仮面ライダーV3
TTITLE11=TVサントラ/デストロン
TTITLE12=TVサントラ/風見志郎
TTITLE13=TVサントラ/変身V3
TTITLE14=TVサントラ/先輩,友とともに
TTITLE15=水木一郎/セタップ!仮面ライダーX
TTITLE16=TVサントラ/GOD
TTITLE17=TVサントラ/神敬介
TTITLE18=TVサントラ/セタップ!
TTITLE19=TVサントラ/大変身!
TTITLE20=TVサントラ/密林
TTITLE21=子門真人/アマゾンライダーここにあり
TTITLE22=TVサントラ/ゲドン
TTITLE23=TVサントラ/アマゾン
TTITLE24=TVサントラ/ガランダー帝国
TTITLE25=TVサントラ/ア・マ・ゾーン!!
TTITLE26=水木一郎/仮面ライダーストロンガーのうた
TTITLE27=TVサントラ/ブラックサタン
TTITLE28=TVサントラ/城茂,岬ユリ子
TTITLE29=TVサントラ/変身ストロンガー!
TTITLE30=水木一郎/戦え!七人ライダー
EXTD=
EXTT0=
EXTT1=
EXTT2=
EXTT3=
EXTT4=
EXTT5=
EXTT6=
EXTT7=
EXTT8=
EXTT9=
EXTT10=
EXTT11=
EXTT12=
EXTT13=
EXTT14=
EXTT15=
EXTT16=
EXTT17=
EXTT18=
EXTT19=
EXTT20=
EXTT21=
EXTT22=
EXTT23=
EXTT24=
EXTT25=
EXTT26=
EXTT27=
EXTT28=
EXTT29=
EXTT30=
PLAYORDER=
